<?xml version="1.0" encoding="UTF-8"?>
<svg version="1.1" xmlns="http://www.w3.org/2000/svg" width="518" height="709">
<path d="M0 0 C170.94 0 341.88 0 518 0 C518 233.97 518 467.94 518 709 C347.06 709 176.12 709 0 709 C0 475.03 0 241.06 0 0 Z " fill="#FEFEFE" transform="translate(0,0)"/>
<path d="M0 0 C3.18149427 1.40592849 5.31974775 3.07072596 7.77183914 5.52574348 C8.51131641 6.26123865 9.25079367 6.99673382 10.01267934 7.75451672 C10.81812711 8.56579018 11.62357489 9.37706364 12.45343018 10.21292114 C13.31439387 11.07217599 14.17535757 11.93143083 15.06241107 12.8167237 C17.45135754 15.20294321 19.8357291 17.59357409 22.21829033 19.98615909 C24.78858884 22.56508745 27.36465731 25.13824074 29.94003296 27.71209717 C34.40131993 32.172335 38.85892786 36.63622263 43.31406403 41.10260391 C49.75546173 47.56024964 56.20236924 54.01237142 62.65063867 60.46315454 C73.11215406 70.92904813 83.56919451 81.39940107 94.0234375 91.87255859 C104.17929838 102.04677504 114.33725589 112.21889064 124.49804688 122.38818359 C125.12426505 123.01492722 125.75048323 123.64167084 126.39567772 124.2874067 C129.53721573 127.43155477 132.67879509 130.57566155 135.82039499 133.71974778 C161.88667517 159.80676435 187.94570022 185.90101833 214 212 C212.41706073 215.33428696 210.70182615 217.54546539 208.07699585 220.16351318 C206.84861244 221.39602058 206.84861244 221.39602058 205.59541321 222.65342712 C204.69558212 223.54606766 203.79575104 224.43870819 202.86865234 225.35839844 C201.91227483 226.31421162 200.95633786 227.27046578 200.00080872 228.22712708 C197.40836168 230.8201478 194.80979564 233.40695695 192.21009016 235.99269772 C189.49322558 238.69705757 186.78202584 241.40708438 184.07022095 244.11651611 C178.9354292 249.24509234 173.79556062 254.3685491 168.6538502 259.49018788 C162.79991108 265.32177026 156.95165175 271.15903446 151.10386348 276.99678373 C139.07555271 289.00419087 127.0401258 301.00444037 115 313 C116.33809454 316.95725031 117.97305742 319.34525488 120.92300415 322.2837677 C121.74192642 323.10681396 122.56084869 323.92986023 123.40458679 324.77784729 C124.75433342 326.11141518 124.75433342 326.11141518 126.13134766 327.47192383 C127.08794006 328.42766955 128.04387143 329.38407727 128.99919128 330.34109497 C131.58942349 332.93218696 134.18879276 335.51393302 136.78990984 338.09409165 C139.5085662 340.79397855 142.21871429 343.50237865 144.92977905 346.20988464 C150.06257744 351.33336338 155.20297436 356.44914752 160.3461498 361.56220692 C166.20206407 367.38457477 172.04944954 373.21547602 177.89613652 379.04710734 C189.92129727 391.04092085 201.95711716 403.02398174 214 415 C212.59407151 418.18149427 210.92927404 420.31974775 208.47425652 422.77183914 C207.73876135 423.51131641 207.00326618 424.25079367 206.24548328 425.01267934 C205.43420982 425.81812711 204.62293636 426.62357489 203.78707886 427.45343018 C202.92782401 428.31439387 202.06856917 429.17535757 201.1832763 430.06241107 C198.79705679 432.45135754 196.40642591 434.8357291 194.01384091 437.21829033 C191.43491255 439.78858884 188.86175926 442.36465731 186.28790283 444.94003296 C181.827665 449.40131993 177.36377737 453.85892786 172.89739609 458.31406403 C166.43975036 464.75546173 159.98762858 471.20236924 153.53684546 477.65063867 C143.07095187 488.11215406 132.60059893 498.56919451 122.12744141 509.0234375 C111.95322496 519.17929838 101.78110936 529.33725589 91.61181641 539.49804688 C90.98507278 540.12426505 90.35832916 540.75048323 89.7125933 541.39567772 C86.56844523 544.53721573 83.42433845 547.67879509 80.28025222 550.82039499 C54.19323565 576.88667517 28.09898167 602.94570022 2 629 C-1.18149427 627.59407151 -3.31974775 625.92927404 -5.77183914 623.47425652 C-6.51131641 622.73876135 -7.25079367 622.00326618 -8.01267934 621.24548328 C-8.81812711 620.43420982 -9.62357489 619.62293636 -10.45343018 618.78707886 C-11.31439387 617.92782401 -12.17535757 617.06856917 -13.06241107 616.1832763 C-15.45135754 613.79705679 -17.8357291 611.40642591 -20.21829033 609.01384091 C-22.78858884 606.43491255 -25.36465731 603.86175926 -27.94003296 601.28790283 C-32.40131993 596.827665 -36.85892786 592.36377737 -41.31406403 587.89739609 C-47.75546173 581.43975036 -54.20236924 574.98762858 -60.65063867 568.53684546 C-71.11215406 558.07095187 -81.56919451 547.60059893 -92.0234375 537.12744141 C-102.17929838 526.95322496 -112.33725589 516.78110936 -122.49804688 506.61181641 C-123.12426505 505.98507278 -123.75048323 505.35832916 -124.39567772 504.7125933 C-127.53721573 501.56844523 -130.67879509 498.42433845 -133.82039499 495.28025222 C-159.88667517 469.19323565 -185.94570022 443.09898167 -212 417 C-210.41704275 413.66377854 -208.70848088 411.47084298 -206.07026672 408.86340332 C-205.24989929 408.04751236 -204.42953186 407.2316214 -203.58430481 406.39100647 C-202.23220161 405.06147194 -202.23220161 405.06147194 -200.8527832 403.70507812 C-199.89474744 402.75579474 -198.93718886 401.80602958 -197.98007202 400.8558197 C-195.92071394 398.8129346 -193.85843772 396.77305756 -191.79397011 394.7353363 C-188.53187063 391.51460547 -185.27901807 388.28464485 -182.02787781 385.05285645 C-172.7826475 375.86520757 -163.52743428 366.68769624 -154.25756836 357.52490234 C-149.13610765 352.4624393 -144.02358181 347.39112856 -138.92076749 342.30986929 C-135.68897962 339.09275115 -132.44640449 335.8870428 -129.19556201 332.6891861 C-127.17949756 330.70078801 -125.17392627 328.70206613 -123.17124557 326.70019722 C-121.7922554 325.32798088 -120.40081528 323.96831197 -119.0091095 322.60899353 C-118.19720154 321.79310257 -117.38529358 320.97721161 -116.54878235 320.13659668 C-115.83514684 319.43016777 -115.12151133 318.72373886 -114.3862505 317.99590302 C-112.80245854 316.13166885 -112.80245854 316.13166885 -113.03815651 314.00405502 C-114.27337665 311.43040438 -115.81560641 309.81587101 -117.8407135 307.79852295 C-118.66667526 306.96843719 -119.49263702 306.13835144 -120.34362793 305.28311157 C-121.25640503 304.3811203 -122.16918213 303.47912903 -123.10961914 302.54980469 C-124.07591594 301.58435418 -125.04155247 300.61824245 -126.00657654 299.65151978 C-128.62785728 297.02937772 -131.25828984 294.41659303 -133.89044499 291.80537319 C-136.63979113 289.07477113 -139.38065323 286.33568041 -142.12242126 283.59747314 C-147.31546352 278.41375801 -152.51610629 273.23773811 -157.71951336 268.06442952 C-163.64310626 262.17435981 -169.55819062 256.27577705 -175.47257054 250.37645864 C-187.63892803 238.24146529 -199.8159441 226.11722275 -212 214 C-210.59407151 210.81850573 -208.92927404 208.68025225 -206.47425652 206.22816086 C-205.73876135 205.48868359 -205.00326618 204.74920633 -204.24548328 203.98732066 C-203.43420982 203.18187289 -202.62293636 202.37642511 -201.78707886 201.54656982 C-200.92782401 200.68560613 -200.06856917 199.82464243 -199.1832763 198.93758893 C-196.79705679 196.54864246 -194.40642591 194.1642709 -192.01384091 191.78170967 C-189.43491255 189.21141116 -186.86175926 186.63534269 -184.28790283 184.05996704 C-179.827665 179.59868007 -175.36377737 175.14107214 -170.89739609 170.68593597 C-164.43975036 164.24453827 -157.98762858 157.79763076 -151.53684546 151.34936133 C-141.07095187 140.88784594 -130.60059893 130.43080549 -120.12744141 119.9765625 C-109.95322496 109.82070162 -99.78110936 99.66274411 -89.61181641 89.50195312 C-88.98507278 88.87573495 -88.35832916 88.24951677 -87.7125933 87.60432228 C-84.56844523 84.46278427 -81.42433845 81.32120491 -78.28025222 78.17960501 C-52.19323565 52.11332483 -26.09898167 26.05429978 0 0 Z " fill="#4C5567" transform="translate(257,51)"/>
<path d="M0 0 C2.61191019 1.18128696 4.17639951 2.69142813 6.20162773 4.72452641 C7.02329933 5.54207401 7.84497093 6.35962162 8.69154167 7.2019434 C10.03050247 8.55708294 10.03050247 8.55708294 11.39651299 9.93959904 C12.3521114 10.89604374 13.30837105 11.85182818 14.26524162 12.80700016 C16.86052545 15.40142272 19.44645116 18.00499568 22.03081226 20.61029267 C24.73338673 23.33161185 27.4444505 26.04444641 30.15463066 28.75818729 C35.28522217 33.89810575 40.40811799 39.04562418 45.52830243 44.19590753 C51.35791344 50.05904231 57.19603803 55.91366807 63.03489828 61.76758969 C75.045478 73.80953313 87.04530641 85.8621347 99.03811455 97.92177677 C102.39294893 96.46367868 104.58823119 94.61891113 107.16366386 92.03673649 C107.97692131 91.22622837 108.79017876 90.41572025 109.62808037 89.58065128 C110.51137016 88.69017094 111.39465996 87.79969059 112.30471611 86.88222599 C113.2506772 85.93570057 114.19707928 84.9896157 115.14388847 84.04393864 C117.71005073 81.47835003 120.2700012 78.90664318 122.82888317 76.33379602 C125.50521552 73.64495843 128.18721534 70.96178615 130.86861992 68.27800846 C135.94407238 63.19634064 141.01440518 58.10959622 146.08291984 53.02100956 C151.8540436 47.22752859 157.63084961 41.4397278 163.40814066 35.65239787 C175.29113412 23.74850113 187.16696901 11.83748912 199.03811455 -0.07822323 C202.72907676 1.20358162 205.10771567 2.61350596 207.87304497 5.36229801 C208.59656654 6.0744698 209.32008812 6.78664158 210.06553459 7.52039433 C210.84394203 8.30173237 211.62234947 9.08307041 212.42434502 9.88808537 C213.25573494 10.71100574 214.08712486 11.53392612 214.94370842 12.38178349 C217.6887828 15.10346212 220.42251687 17.83620018 223.15530205 20.57021427 C224.57571886 21.98532669 225.99613879 23.40043607 227.41702855 24.81507361 C231.88046667 29.25929717 236.33570514 33.71162665 240.78616142 38.16884708 C245.3803674 42.76970647 249.98916692 47.35557248 254.60517585 51.93454778 C258.56834401 55.86706724 262.52183032 59.80913953 266.46775353 63.75896227 C268.82456133 66.11784104 271.18609193 68.4716144 273.55501747 70.81833363 C276.19145111 73.43275458 278.81167022 76.06241034 281.42825127 78.69667912 C282.21880409 79.4739687 283.00935692 80.25125828 283.82386589 81.05210209 C284.88376984 82.12881924 284.88376984 82.12881924 285.96508598 83.22728825 C286.58633291 83.84782267 287.20757984 84.46835709 287.84765244 85.10769558 C289.03811455 86.92177677 289.03811455 86.92177677 288.80273694 88.82186687 C287.90715268 91.28144205 286.84365951 92.48908574 284.99461842 94.33441639 C284.34123239 94.99377556 283.68784637 95.65313472 283.01466078 96.33247447 C282.28996629 97.04843044 281.5652718 97.7643864 280.81861687 98.502038 C279.67189879 99.65260099 279.67189879 99.65260099 278.5020147 100.82640767 C275.92795276 103.40542725 273.34328408 105.97354979 270.75857353 108.54189396 C268.91544079 110.38418086 267.07296764 112.22712787 265.23110771 114.07068729 C261.25921127 118.04415768 257.28185385 122.01209325 253.30074692 125.97633457 C247.54473047 131.70798198 241.79700437 137.44788399 236.0512755 143.18984202 C226.72925948 152.50529026 217.40056203 161.8140177 208.06765556 171.11855412 C199.00099337 180.15768418 189.93748371 189.19995611 180.87820244 198.2464838 C180.04074426 199.08275972 180.04074426 199.08275972 179.18636774 199.9359301 C176.3855655 202.73281727 173.58482519 205.52976645 170.78411567 208.32674646 C147.54504307 231.534713 124.29512529 254.7317861 101.03811455 277.92177677 C98.03597334 276.57405363 95.94623077 275.07909958 93.62547493 272.75523281 C92.63643618 271.77216721 92.63643618 271.77216721 91.62741685 270.76924169 C90.91146088 270.04746004 90.19550492 269.32567839 89.45785332 268.58202457 C88.69081133 267.81669143 87.92376934 267.05135829 87.13348365 266.26283324 C84.55687422 263.68952582 81.98749191 261.10912072 79.41799736 258.52871037 C77.57549575 256.68564479 75.73255399 254.84301914 73.88920403 253.00080204 C69.9173777 249.03002458 65.94923061 245.05560075 61.98355675 241.07867908 C56.24984993 235.3287204 50.51063053 229.58429018 44.7700493 223.84119566 C35.45656203 214.52333079 26.14755014 205.20100804 16.8413372 195.87587833 C7.80103705 186.81722105 -1.24136063 177.76066604 -10.28659248 168.70693302 C-10.84410976 168.1488903 -11.40162704 167.59084757 -11.97603878 167.01589446 C-14.77294316 164.21638002 -17.56988887 161.41690688 -20.36685514 158.61745429 C-43.57161224 135.39196269 -66.7691122 112.15923543 -89.96188545 88.92177677 C-86.7860451 85.17109293 -83.61519799 81.45365798 -80.15423775 77.96022892 C-79.46180977 77.25920048 -78.76938179 76.55817204 -78.05597115 75.83590031 C-77.31706642 75.09273563 -76.5781617 74.34957096 -75.81686592 73.58388615 C-75.02262215 72.78146488 -74.22837837 71.97904362 -73.4100666 71.15230656 C-70.80276413 68.52035492 -68.19147838 65.892413 -65.57907295 63.26552677 C-64.68489788 62.36602802 -63.79072281 61.46652927 -62.86945152 60.53977299 C-59.11559273 56.76474636 -55.36072288 52.99073994 -51.60192871 49.22062778 C-46.22770009 43.83010137 -40.86219822 38.43120542 -35.50824249 33.02054071 C-31.27839487 28.74742569 -27.03502764 24.48799411 -22.78668785 20.23325443 C-20.98265928 18.42248793 -19.18290818 16.60744972 -17.38747978 14.78815556 C-14.88586018 12.25515547 -12.36918572 9.73813185 -9.84811592 7.22451115 C-9.10516273 6.46515263 -8.36220955 5.70579411 -7.59674263 4.92342472 C-6.9099543 4.24495487 -6.22316597 3.56648502 -5.51556587 2.86745548 C-4.92234976 2.27092922 -4.32913364 1.67440296 -3.71794128 1.05980015 C-1.96188545 -0.07822323 -1.96188545 -0.07822323 0 0 Z " fill="#FEFEFE" transform="translate(157.9618854522705,378.0782232284546)"/>
<path d="M0 0 C4.25672141 1.65539166 6.99742907 4.73763729 10.125 7.9375 C10.66253906 8.47568359 11.20007813 9.01386719 11.75390625 9.56835938 C17.88244497 15.76567222 17.88244497 15.76567222 18.375 20.9375 C18.27840517 23.85144391 18.04439756 24.92600406 16.5 27.5 C13.00135945 29.59918433 9.98851122 29.73494306 6 29 C4.66209359 28.00612666 3.32781878 27.0073108 2 26 C-0.39263407 26.66771183 -2.22097385 27.22097385 -4 29 C-11.03846154 29.57692308 -11.03846154 29.57692308 -14.5 27.5 C-16.15709437 24.73817605 -16.86804034 22.52212171 -16.7109375 19.27734375 C-15.12246418 14.18899241 -10.72259538 10.63424265 -7 7 C-6.2884375 6.27683594 -5.576875 5.55367188 -4.84375 4.80859375 C-3.24565168 3.18757189 -1.63298728 1.58573042 0 0 Z " fill="#F8F9F9" transform="translate(257,253)"/>
<path d="M0 0 C4.69130214 -0.68099547 7.49613295 -1.01194792 11.5078125 1.6875 C14.11072726 4.03746693 16.56451701 6.47712839 19 9 C19.85722656 9.8353125 20.71445312 10.670625 21.59765625 11.53125 C29.14078955 18.89506951 29.14078955 18.89506951 29.25 24.4375 C29.28867187 25.61119141 29.28867187 25.61119141 29.328125 26.80859375 C28.92037104 29.53180773 28.16200788 30.34669986 26 32 C22.55408176 33.07206345 20.67676204 33.25573048 17.28125 31.97265625 C12.98098395 29.38737725 9.78933441 26.14938258 6.3125 22.5625 C5.64927734 21.89412109 4.98605469 21.22574219 4.30273438 20.53710938 C-3.94202479 12.15950414 -3.94202479 12.15950414 -4.1875 7.25 C-4.125625 6.1775 -4.06375 5.105 -4 4 C-3.34 4 -2.68 4 -2 4 C-1.34 2.68 -0.68 1.36 0 0 Z " fill="#F8F8F9" transform="translate(279,283)"/>
<path d="M0 0 C2.375 1 2.375 1 4 3 C4.97611433 6.22868587 4.90294201 8.7544251 4 12 C1.4236857 15.77583678 -1.72470382 18.82876013 -5 22 C-5.80050781 22.845625 -6.60101563 23.69125 -7.42578125 24.5625 C-14.01759129 31.47559154 -14.01759129 31.47559154 -19 33 C-22.52681669 32.8560483 -24.45764866 32.37108249 -27.375 30.375 C-29.64927177 27.05106433 -29.41451725 24.96872618 -29 21 C-27.10400391 18.29345703 -27.10400391 18.29345703 -24.4765625 15.7578125 C-23.538125 14.83742188 -22.5996875 13.91703125 -21.6328125 12.96875 C-20.63037475 12.02065734 -19.62776868 11.07274264 -18.625 10.125 C-17.62866681 9.15522706 -16.63385715 8.18388625 -15.640625 7.2109375 C-6.57787378 -1.57868971 -6.57787378 -1.57868971 0 0 Z " fill="#F9F9FA" transform="translate(236,283)"/>
<path d="M0 0 C4.75692023 1.24361558 7.77588297 5.32281168 10.9921875 8.83618164 C11.73339844 9.61348633 12.47460938 10.39079102 13.23828125 11.19165039 C14.61982829 12.64264683 15.99296171 14.1017381 17.35449219 15.5715332 C18.66770104 16.97305925 20.03738031 18.32288885 21.44628906 19.62817383 C23.2421875 21.58618164 23.2421875 21.58618164 23.8046875 25.02368164 C23.2421875 28.58618164 23.2421875 28.58618164 21.1796875 31.52368164 C18.2421875 33.58618164 18.2421875 33.58618164 15.0546875 34.46118164 C8.97977984 33.06694054 5.54332082 28.91999834 1.2421875 24.58618164 C-0.03011719 23.35061523 -0.03011719 23.35061523 -1.328125 22.09008789 C-9.60191954 13.98921832 -9.60191954 13.98921832 -10.1328125 9.21118164 C-9.45308455 2.64047817 -6.77218401 -0.18392636 0 0 Z " fill="#FAFBFB" transform="translate(318.7578125,315.413818359375)"/>
<path d="M0 0 C2.9375 1.5 2.9375 1.5 5 4 C5.8494182 7.51901825 6.07620529 8.69166522 5 12 C2.37961567 15.72370405 -0.75288019 18.82144682 -4 22 C-4.82371094 22.84691406 -5.64742187 23.69382812 -6.49609375 24.56640625 C-14.58665966 32.84296218 -14.58665966 32.84296218 -19.9375 33.4375 C-23.21428466 33.34094649 -23.84217092 33.130209 -26.5 30.9375 C-28.37614105 27.26339045 -28.41033255 25.09373185 -28 21 C-26.18334961 18.27758789 -26.18334961 18.27758789 -23.65234375 15.72265625 C-22.73646484 14.79775391 -21.82058594 13.87285156 -20.87695312 12.91992188 C-20.39363525 12.45126709 -19.91031738 11.9826123 -19.41235352 11.49975586 C-17.94079929 10.06571518 -16.51038348 8.59810306 -15.08007812 7.12304688 C-14.15517578 6.20716797 -13.23027344 5.29128906 -12.27734375 4.34765625 C-11.43421631 3.51242432 -10.59108887 2.67719238 -9.72241211 1.81665039 C-6.23960653 -0.50740631 -4.11097889 -0.44799704 0 0 Z " fill="#FBFBFB" transform="translate(202,316)"/>
<path d="M0 0 C2.8798663 1.68819749 3.12531877 3.35715851 4.25 6.5625 C4.55256932 9.72202193 4.09342301 10.86093686 2.296875 13.53515625 C-2.07741407 18.46739036 -6.87848013 22.8591967 -12 27 C-16.18423892 23.49102731 -20.19588166 19.91939465 -24 16 C-22.39760535 12.04555237 -19.66378527 9.33152242 -16.6875 6.375 C-15.9769043 5.64023437 -15.9769043 5.64023437 -15.25195312 4.890625 C-10.42421316 0.05628074 -6.72879631 -1.90161635 0 0 Z " fill="#F7F7F8" transform="translate(170,350)"/>
<path d="M0 0 C5.8265291 4.114243 10.46667661 9.5458453 15 15 C11.32167983 19.52615993 7.58913637 23.39424999 3 27 C-10.83233533 15.50299401 -10.83233533 15.50299401 -13.0625 8.8125 C-12.99143577 5.61460955 -12.6733066 3.73813808 -11 1 C-7.13427264 -1.36238894 -4.25278171 -1.4175939 0 0 Z " fill="#F8F8F9" transform="translate(355,350)"/>
</svg>
